<mxfile host="Electron" modified="2023-04-15T10:08:43.653Z" agent="Mozilla/5.0 (Windows NT 10.0; Win64; x64) AppleWebKit/537.36 (KHTML, like Gecko) draw.io/21.1.2 Chrome/106.0.5249.199 Electron/21.4.3 Safari/537.36" etag="qypc6rYZb2H-_bXxDzzL" version="21.1.2" type="device">
  <diagram name="Page-1" id="r8WuwPGj7A6iYyr9X4Mw">
    <mxGraphModel dx="2521" dy="1803" grid="1" gridSize="10" guides="1" tooltips="1" connect="1" arrows="1" fold="1" page="1" pageScale="1" pageWidth="850" pageHeight="1100" math="0" shadow="0">
      <root>
        <mxCell id="0" />
        <mxCell id="1" parent="0" />
        <mxCell id="76wUlQROBvg_zA9WD2Oi-4" value="Облако слов" style="shape=hexagon;perimeter=hexagonPerimeter2;whiteSpace=wrap;html=1;fixedSize=1;align=center;verticalAlign=top;fontSize=14;" vertex="1" parent="1">
          <mxGeometry x="365" y="-160" width="465" height="280" as="geometry" />
        </mxCell>
        <mxCell id="76wUlQROBvg_zA9WD2Oi-1" value="Текст" style="rounded=0;whiteSpace=wrap;html=1;" vertex="1" parent="1">
          <mxGeometry x="-80" y="40" width="160" height="80" as="geometry" />
        </mxCell>
        <mxCell id="76wUlQROBvg_zA9WD2Oi-2" value="Слова" style="rounded=0;whiteSpace=wrap;html=1;" vertex="1" parent="1">
          <mxGeometry x="410" y="-50" width="160" height="40" as="geometry" />
        </mxCell>
        <mxCell id="76wUlQROBvg_zA9WD2Oi-3" value="Идея: взять текст, выучить его, к нему добавить коллекцию слов, которые я хочу выучить из этого текста" style="text;html=1;strokeColor=#82b366;fillColor=#d5e8d4;align=center;verticalAlign=middle;whiteSpace=wrap;rounded=0;glass=0;fontColor=#009900;" vertex="1" parent="1">
          <mxGeometry x="-130" y="-200" width="300" height="60" as="geometry" />
        </mxCell>
        <mxCell id="76wUlQROBvg_zA9WD2Oi-6" value="Связь" style="rounded=0;whiteSpace=wrap;html=1;" vertex="1" parent="1">
          <mxGeometry x="160" width="120" height="40" as="geometry" />
        </mxCell>
        <mxCell id="76wUlQROBvg_zA9WD2Oi-7" value="" style="edgeStyle=entityRelationEdgeStyle;fontSize=12;html=1;endArrow=ERoneToMany;rounded=0;exitX=1;exitY=0.5;exitDx=0;exitDy=0;entryX=0;entryY=0.5;entryDx=0;entryDy=0;" edge="1" parent="1" source="76wUlQROBvg_zA9WD2Oi-1" target="76wUlQROBvg_zA9WD2Oi-6">
          <mxGeometry width="100" height="100" relative="1" as="geometry">
            <mxPoint x="300" y="120" as="sourcePoint" />
            <mxPoint x="400" y="20" as="targetPoint" />
          </mxGeometry>
        </mxCell>
        <mxCell id="76wUlQROBvg_zA9WD2Oi-9" value="" style="edgeStyle=entityRelationEdgeStyle;fontSize=12;html=1;endArrow=ERmandOne;rounded=0;exitX=1;exitY=0.5;exitDx=0;exitDy=0;entryX=0;entryY=0.5;entryDx=0;entryDy=0;" edge="1" parent="1" source="76wUlQROBvg_zA9WD2Oi-6" target="76wUlQROBvg_zA9WD2Oi-2">
          <mxGeometry width="100" height="100" relative="1" as="geometry">
            <mxPoint x="300" y="120" as="sourcePoint" />
            <mxPoint x="400" y="20" as="targetPoint" />
          </mxGeometry>
        </mxCell>
      </root>
    </mxGraphModel>
  </diagram>
</mxfile>
